<svg width="36" height="36" viewBox="0 0 36 36" fill="none" xmlns="http://www.w3.org/2000/svg">
<path d="M4.5 12.5C4.5 11.3954 5.39543 10.5 6.5 10.5H10.25C10.8795 10.5 11.4723 10.2036 11.85 9.7L14.025 6.8C14.4027 6.29639 14.9955 6 15.625 6H20.375C21.0045 6 21.5973 6.29639 21.975 6.8L24.15 9.7C24.5277 10.2036 25.1205 10.5 25.75 10.5H29.5C30.6046 10.5 31.5 11.3954 31.5 12.5V28C31.5 29.1046 30.6046 30 29.5 30H6.5C5.39543 30 4.5 29.1046 4.5 28V12.5Z" stroke="white" stroke-width="2" stroke-linecap="round" stroke-linejoin="round"/>
<circle cx="18" cy="19.5" r="6" stroke="white" stroke-width="2" stroke-linecap="round" stroke-linejoin="round"/>
</svg>
