<svg width="24" height="24" viewBox="0 0 24 24" fill="none" xmlns="http://www.w3.org/2000/svg">
<path d="M9 22H15C20 22 22 20 22 15V9C22 4 20 2 15 2H9C4 2 2 4 2 9V15C2 20 4 22 9 22Z" stroke="#475069" stroke-width="1.5" stroke-linecap="round" stroke-linejoin="round"/>
<path d="M16.2802 13.6099C15.1502 14.7399 13.5302 15.0899 12.1002 14.6399L9.5102 17.2199C9.3302 17.4099 8.9602 17.5299 8.6902 17.4899L7.4902 17.3299C7.0902 17.2799 6.7302 16.8999 6.6702 16.5099L6.5102 15.3099C6.4702 15.0499 6.6002 14.6799 6.7802 14.4899L9.3602 11.9099C8.9202 10.4799 9.2602 8.85989 10.3902 7.72989C12.0102 6.10989 14.6502 6.10989 16.2802 7.72989C17.9002 9.33989 17.9002 11.9799 16.2802 13.6099Z" stroke="#475069" stroke-width="1.5" stroke-miterlimit="10" stroke-linecap="round" stroke-linejoin="round"/>
<path d="M10.4501 16.2799L9.6001 15.4199" stroke="#475069" stroke-width="1.5" stroke-miterlimit="10" stroke-linecap="round" stroke-linejoin="round"/>
<path d="M13.3944 10.7H13.4034" stroke="#475069" stroke-width="2" stroke-linecap="round" stroke-linejoin="round"/>
</svg>
