<svg width="20" height="24" viewBox="0 0 20 24" fill="none" xmlns="http://www.w3.org/2000/svg">
<path d="M7.74951 18.6001H12.2495C12.5983 19.0511 12.812 19.6341 12.812 20.2501C12.812 21.7681 11.552 23.0001 9.99951 23.0001C8.44701 23.0001 7.18701 21.7681 7.18701 20.2501C7.18701 19.6341 7.40076 19.0511 7.74951 18.6001Z" stroke="#EBEEF5" stroke-width="2" stroke-miterlimit="10" stroke-linecap="round" stroke-linejoin="round"/>
<path d="M8.21579 4.53367C8.78427 4.38134 9.38255 4.29998 10 4.29998C10.6175 4.29998 11.2157 4.38134 11.7842 4.53367C12.0837 4.16115 12.25 3.70224 12.25 3.19999C12.25 1.98999 11.2375 1 10 1C8.7625 1 7.75 1.98999 7.75 3.19999C7.75 3.70224 7.91626 4.16115 8.21579 4.53367Z" stroke="#EBEEF5" stroke-width="2" stroke-miterlimit="10" stroke-linecap="round" stroke-linejoin="round"/>
<path d="M3.25 14.1997L1 18.5997H19L16.75 14.1997V10.8998C16.75 7.25879 13.7237 4.2998 10 4.2998C6.27625 4.2998 3.25 7.25879 3.25 10.8998V14.1997Z" stroke="#EBEEF5" stroke-width="2" stroke-miterlimit="10" stroke-linecap="round" stroke-linejoin="round"/>
</svg>
