<svg width="45" height="35" viewBox="0 0 45 35" fill="none" xmlns="http://www.w3.org/2000/svg">
<path d="M0 23.3817C0 29.0941 2.22973 32.7248 6.68919 34.2739C7.9054 34.758 9.22297 35 10.6419 35C14.6959 35 17.6351 33.1604 19.4595 29.4813C20.1689 28.1259 20.5236 26.6736 20.5236 25.1245C20.5236 20.9613 18.5473 18.0083 14.5946 16.2656C13.7838 15.9751 13.0237 15.7331 12.3142 15.5394C9.88176 14.8617 8.61486 13.6999 8.51352 12.0539C8.61486 9.14938 10.4899 5.85754 14.1385 2.17842L11.098 0C5.01689 6.09959 1.41892 12.7801 0.304054 20.0415C0.101353 21.2033 0 22.3167 0 23.3817ZM24.4764 23.3817C24.4764 29.0941 26.7061 32.7248 31.1655 34.2739C32.3818 34.758 33.6993 35 35.1182 35C39.1723 35 42.1115 33.1604 43.9358 29.4813C44.6453 28.1259 45 26.6736 45 25.1245C45 20.9613 43.0236 18.0083 39.0709 16.2656C38.2601 15.9751 37.5 15.7331 36.7905 15.5394C34.3581 14.8617 33.0912 13.6999 32.9899 12.0539C33.0912 9.14938 34.9662 5.85754 38.6149 2.17842L35.5743 0C29.4932 6.09959 25.8953 12.7801 24.7804 20.0415C24.5777 21.2033 24.4764 22.3167 24.4764 23.3817Z" fill="#FED501"/>
</svg>
