<svg width="45" height="35" viewBox="0 0 45 35" fill="none" xmlns="http://www.w3.org/2000/svg">
<path d="M45 11.6183C45 5.90595 42.7703 2.27524 38.3108 0.726141C37.0946 0.242047 35.777 0 34.3581 0C30.3041 0 27.3649 1.83956 25.5405 5.51867C24.8311 6.87414 24.4764 8.32642 24.4764 9.87552C24.4764 14.0387 26.4527 16.9917 30.4054 18.7344C31.2162 19.0249 31.9764 19.2669 32.6858 19.4606C35.1182 20.1383 36.3851 21.3001 36.4865 22.9461C36.3851 25.8506 34.5101 29.1425 30.8615 32.8216L33.902 35C39.9831 28.9004 43.5811 22.2199 44.6959 14.9585C44.8986 13.7967 45 12.6833 45 11.6183ZM20.5236 11.6183C20.5236 5.90595 18.2939 2.27524 13.8345 0.726141C12.6182 0.242047 11.3007 0 9.88176 0C5.8277 0 2.88851 1.83956 1.06419 5.51867C0.35473 6.87414 0 8.32642 0 9.87552C0 14.0387 1.97635 16.9917 5.92905 18.7344C6.73986 19.0249 7.5 19.2669 8.20946 19.4606C10.6419 20.1383 11.9088 21.3001 12.0101 22.9461C11.9088 25.8506 10.0338 29.1425 6.38513 32.8216L9.42568 35C15.5068 28.9004 19.1047 22.2199 20.2196 14.9585C20.4223 13.7967 20.5236 12.6833 20.5236 11.6183Z" fill="#FED501"/>
</svg>
