<svg width="96" height="96" viewBox="0 0 96 96" fill="none" xmlns="http://www.w3.org/2000/svg">
<g clip-path="url(#clip0_1056_5436)">
<path d="M7.47608 75.9959C5.93222 78.6625 7.85646 82 10.9378 82H85.0622C88.1435 82 90.0678 78.6625 88.5239 75.9959L51.4617 11.9793C49.921 9.31816 46.079 9.31817 44.5383 11.9793L7.47608 75.9959ZM52 66C52 68.2091 50.2091 70 48 70V70C45.7909 70 44 68.2091 44 66V66C44 63.7909 45.7909 62 48 62V62C50.2091 62 52 63.7909 52 66V66ZM52 50C52 52.2091 50.2091 54 48 54V54C45.7909 54 44 52.2091 44 50V42C44 39.7909 45.7909 38 48 38V38C50.2091 38 52 39.7909 52 42V50Z" fill="#FFAD49"/>
</g>
<defs>
<clipPath id="clip0_1056_5436">
<rect width="96" height="96" fill="white"/>
</clipPath>
</defs>
</svg>
