<svg width="881" height="158" viewBox="0 0 881 158" fill="none" xmlns="http://www.w3.org/2000/svg">
<path d="M190.257 127H169.31V42.9912H137.742V21.9707H221.751V42.9912H190.257V127ZM277.476 127H256.528V42.9912H224.961V21.9707H308.97V42.9912H277.476V127ZM459.371 87.083C459.371 84.3486 458.834 81.7119 457.76 79.1729C456.734 76.585 455.318 74.3145 453.512 72.3613C451.705 70.3594 449.581 68.7725 447.14 67.6006C444.747 66.3799 442.184 65.7695 439.449 65.7695C436.715 65.7695 434.127 66.2334 431.686 67.1611C429.293 68.0889 427.193 69.4561 425.387 71.2627C423.629 73.0693 422.237 75.3154 421.212 78.001C420.187 80.6377 419.674 83.665 419.674 87.083C419.674 90.3545 420.187 93.3086 421.212 95.9453C422.237 98.5332 423.629 100.755 425.387 102.61C427.193 104.466 429.293 105.906 431.686 106.932C434.127 107.908 436.715 108.396 439.449 108.396C442.184 108.396 444.747 107.811 447.14 106.639C449.581 105.418 451.705 103.831 453.512 101.878C455.318 99.876 456.734 97.6055 457.76 95.0664C458.834 92.4785 459.371 89.8174 459.371 87.083ZM479.513 117.112C479.513 122.63 478.463 127.806 476.363 132.64C474.264 137.474 471.383 141.697 467.721 145.311C464.107 148.924 459.859 151.78 454.977 153.88C450.143 155.979 444.967 157.029 439.449 157.029L429.415 156.883V136.888L439.303 137.034C442.428 137.034 445.089 136.619 447.286 135.789C449.483 135.008 451.339 133.909 452.853 132.493C454.366 131.126 455.562 129.539 456.441 127.732C457.369 125.926 458.102 124.021 458.639 122.02C457.857 123.289 456.734 124.339 455.27 125.169C453.805 125.95 452.169 126.585 450.362 127.073C448.604 127.61 446.749 127.977 444.796 128.172C442.892 128.367 441.109 128.465 439.449 128.465C433.932 128.465 428.731 127.513 423.849 125.608C419.015 123.704 414.767 120.994 411.104 117.479C407.491 113.914 404.635 109.568 402.535 104.441C400.436 99.3145 399.386 93.5283 399.386 87.083C399.386 81.1748 400.436 75.6816 402.535 70.6035C404.635 65.5254 407.491 61.1309 411.104 57.4199C414.767 53.709 419.015 50.8037 423.849 48.7041C428.731 46.6045 433.932 45.5547 439.449 45.5547C441.988 45.5547 444.503 45.8721 446.993 46.5068C449.483 47.1416 451.9 48.0205 454.244 49.1436C456.588 50.2666 458.81 51.585 460.909 53.0986C463.058 54.6123 465.06 56.248 466.915 58.0059L474.679 48.7041H479.513V117.112ZM526.521 107.811C527.303 108.055 528.084 108.226 528.865 108.323C529.646 108.372 530.428 108.396 531.209 108.396C533.162 108.396 535.042 108.128 536.849 107.591C538.655 107.054 540.34 106.297 541.902 105.32C543.514 104.295 544.93 103.074 546.15 101.658C547.42 100.193 548.445 98.582 549.227 96.8242L563.875 111.546C562.02 114.183 559.871 116.551 557.43 118.65C555.037 120.75 552.425 122.532 549.593 123.997C546.81 125.462 543.855 126.561 540.73 127.293C537.654 128.074 534.48 128.465 531.209 128.465C525.691 128.465 520.491 127.439 515.608 125.389C510.774 123.338 506.526 120.481 502.864 116.819C499.251 113.157 496.395 108.812 494.295 103.782C492.195 98.7041 491.146 93.1377 491.146 87.083C491.146 80.8818 492.195 75.2178 494.295 70.0908C496.395 64.9639 499.251 60.5938 502.864 56.9805C506.526 53.3672 510.774 50.5596 515.608 48.5576C520.491 46.5557 525.691 45.5547 531.209 45.5547C534.48 45.5547 537.679 45.9453 540.804 46.7266C543.929 47.5078 546.883 48.6309 549.666 50.0957C552.498 51.5605 555.135 53.3672 557.576 55.5156C560.018 57.6152 562.166 59.9834 564.021 62.6201L526.521 107.811ZM536.775 66.5752C535.848 66.2334 534.92 66.0137 533.992 65.916C533.113 65.8184 532.186 65.7695 531.209 65.7695C528.475 65.7695 525.887 66.2822 523.445 67.3076C521.053 68.2842 518.953 69.7002 517.146 71.5557C515.389 73.4111 513.997 75.6572 512.972 78.2939C511.946 80.8818 511.434 83.8115 511.434 87.083C511.434 87.8154 511.458 88.6455 511.507 89.5732C511.604 90.501 511.727 91.4531 511.873 92.4297C512.068 93.3574 512.288 94.2607 512.532 95.1396C512.776 96.0186 513.094 96.7998 513.484 97.4834L536.775 66.5752ZM613.96 127C609.126 127 604.585 126.097 600.337 124.29C596.089 122.435 592.354 119.92 589.131 116.746C585.957 113.523 583.442 109.788 581.587 105.54C579.78 101.292 578.877 96.751 578.877 91.917V68.626H569.136V48.7041H578.877V17.3564H598.799V48.7041H629.121V68.626H598.799V91.917C598.799 94.0166 599.189 95.9941 599.971 97.8496C600.752 99.6562 601.826 101.243 603.193 102.61C604.561 103.978 606.172 105.076 608.027 105.906C609.883 106.688 611.86 107.078 613.96 107.078H629.121V127H613.96ZM660.896 127H640.9V17.3564H660.896V52C663.288 50.1934 665.754 48.9238 668.293 48.1914C670.832 47.4102 673.42 47.0195 676.057 47.0195C680.891 47.0195 685.432 47.9473 689.68 49.8027C693.928 51.6094 697.614 54.124 700.739 57.3467C703.913 60.5205 706.403 64.2559 708.21 68.5527C710.065 72.8008 710.993 77.3418 710.993 82.1758V127H690.852V82.1758H690.998C690.998 80.125 690.607 78.1963 689.826 76.3896C689.045 74.5342 687.971 72.9229 686.604 71.5557C685.236 70.1885 683.649 69.1143 681.843 68.333C680.036 67.5518 678.107 67.1611 676.057 67.1611C673.957 67.1611 671.979 67.5518 670.124 68.333C668.269 69.1143 666.657 70.1885 665.29 71.5557C663.923 72.9229 662.849 74.5342 662.067 76.3896C661.286 78.1963 660.896 80.125 660.896 82.1758V127ZM756.977 107.811C757.758 108.055 758.539 108.226 759.32 108.323C760.102 108.372 760.883 108.396 761.664 108.396C763.617 108.396 765.497 108.128 767.304 107.591C769.11 107.054 770.795 106.297 772.357 105.32C773.969 104.295 775.385 103.074 776.605 101.658C777.875 100.193 778.9 98.582 779.682 96.8242L794.33 111.546C792.475 114.183 790.326 116.551 787.885 118.65C785.492 120.75 782.88 122.532 780.048 123.997C777.265 125.462 774.311 126.561 771.186 127.293C768.109 128.074 764.936 128.465 761.664 128.465C756.146 128.465 750.946 127.439 746.063 125.389C741.229 123.338 736.981 120.481 733.319 116.819C729.706 113.157 726.85 108.812 724.75 103.782C722.65 98.7041 721.601 93.1377 721.601 87.083C721.601 80.8818 722.65 75.2178 724.75 70.0908C726.85 64.9639 729.706 60.5938 733.319 56.9805C736.981 53.3672 741.229 50.5596 746.063 48.5576C750.946 46.5557 756.146 45.5547 761.664 45.5547C764.936 45.5547 768.134 45.9453 771.259 46.7266C774.384 47.5078 777.338 48.6309 780.121 50.0957C782.953 51.5605 785.59 53.3672 788.031 55.5156C790.473 57.6152 792.621 59.9834 794.477 62.6201L756.977 107.811ZM767.23 66.5752C766.303 66.2334 765.375 66.0137 764.447 65.916C763.568 65.8184 762.641 65.7695 761.664 65.7695C758.93 65.7695 756.342 66.2822 753.9 67.3076C751.508 68.2842 749.408 69.7002 747.602 71.5557C745.844 73.4111 744.452 75.6572 743.427 78.2939C742.401 80.8818 741.889 83.8115 741.889 87.083C741.889 87.8154 741.913 88.6455 741.962 89.5732C742.06 90.501 742.182 91.4531 742.328 92.4297C742.523 93.3574 742.743 94.2607 742.987 95.1396C743.231 96.0186 743.549 96.7998 743.939 97.4834L767.23 66.5752ZM825.079 127H805.084V48.5576H809.918L816.51 57.8594C819.732 54.9297 823.395 52.6836 827.496 51.1211C831.598 49.5098 835.846 48.7041 840.24 48.7041H857.892V68.626H840.24C838.141 68.626 836.163 69.0166 834.308 69.7979C832.452 70.5791 830.841 71.6533 829.474 73.0205C828.106 74.3877 827.032 75.999 826.251 77.8545C825.47 79.71 825.079 81.6875 825.079 83.7871V127Z" fill="#6534F5"/>
<g clip-path="url(#clip0_206_21071)">
<path d="M343.988 40.541C317.105 40.541 295.336 62.3586 295.336 89.241C295.336 116.123 317.105 137.941 343.988 137.941C370.919 137.941 392.736 116.123 392.736 89.241C392.736 62.3586 370.919 40.541 343.988 40.541ZM326.991 69.761C331.033 69.761 334.296 73.0239 334.296 77.066C334.296 81.1081 331.033 84.371 326.991 84.371C322.949 84.371 319.686 81.1081 319.686 77.066C319.686 73.0239 322.949 69.761 326.991 69.761ZM344.036 118.461C332.933 118.461 323.485 110.377 319.686 98.981H368.386C364.588 110.377 355.14 118.461 344.036 118.461ZM361.081 84.371C357.039 84.371 353.776 81.1081 353.776 77.066C353.776 73.0239 357.039 69.761 361.081 69.761C365.123 69.761 368.386 73.0239 368.386 77.066C368.386 81.1081 365.123 84.371 361.081 84.371Z" fill="#6534F5"/>
</g>
<rect width="128" height="127" rx="46" fill="#6534F5"/>
<g clip-path="url(#clip1_206_21071)">
<path d="M43 31.5V94.5L92.5 63L43 31.5Z" fill="#180B38"/>
</g>
<defs>
<clipPath id="clip0_206_21071">
<rect width="116.88" height="116.88" fill="white" transform="translate(285 31)"/>
</clipPath>
<clipPath id="clip1_206_21071">
<rect width="108" height="108" fill="white" transform="translate(7 9)"/>
</clipPath>
</defs>
</svg>
