<svg width="28" height="28" viewBox="0 0 8 9" fill="none" xmlns="http://www.w3.org/2000/svg">
<path d="M7.97446 2.87201C7.94932 2.79796 7.90305 2.7329 7.84135 2.68485C7.77966 2.63681 7.70525 2.60788 7.6273 2.60164L5.34721 2.42047L4.36054 0.236356C4.32911 0.16601 4.278 0.106262 4.21337 0.0643215C4.14875 0.0223815 4.07336 4.2346e-05 3.99631 6.01434e-08C3.91927 -4.22257e-05 3.84386 0.0222142 3.77918 0.0640832C3.71451 0.105952 3.66333 0.165645 3.63183 0.235956L2.64516 2.42047L0.365066 2.60164C0.288458 2.60771 0.215221 2.63572 0.154116 2.68232C0.0930106 2.72893 0.0466252 2.79215 0.0205087 2.86442C-0.00560774 2.93669 -0.0103493 3.01496 0.00685124 3.08986C0.0240518 3.16476 0.0624662 3.23311 0.117499 3.28675L1.80248 4.92933L1.20655 7.50979C1.18846 7.5879 1.19426 7.66965 1.2232 7.74442C1.25214 7.81919 1.30289 7.88354 1.36885 7.92911C1.43482 7.97468 1.51296 7.99938 1.59314 7.99999C1.67331 8.0006 1.75182 7.9771 1.81847 7.93254L3.99619 6.48073L6.1739 7.93254C6.24202 7.97777 6.32236 8.00105 6.40412 7.99926C6.48587 7.99747 6.56512 7.97068 6.63119 7.92251C6.69727 7.87433 6.74701 7.80708 6.77372 7.72979C6.80044 7.6525 6.80284 7.56889 6.78062 7.49019L6.04911 4.93053L7.86327 3.29795C7.98206 3.19076 8.02565 3.02359 7.97446 2.87201Z" fill="#FFCA45"/>
</svg>
